<svg id="logosandtypes_com" data-name="logosandtypes com" xmlns="http://www.w3.org/2000/svg" viewBox="0 0 150 150"><defs><style>.cls-1{fill:none;}.cls-2{fill:#ed7c37;}.cls-3{fill:#de5126;}.cls-4{fill:#c2c2c3;}.cls-5{fill:#a2a2a2;}.cls-6{fill:#f89b33;}.cls-7{fill:#b7b7b8;}.cls-8{fill:#929293;}.cls-9{fill:#d4d4d5;}</style></defs><path class="cls-1" d="M0,0H150V150H0Z" transform="translate(0 0)"/><polygon class="cls-2" points="28.8 47.26 31.14 100.36 45.75 94.9 45.75 56.92 78.05 38.04 76.17 22.55 28.8 47.26"/><polygon class="cls-3" points="122.74 47.72 76.17 22.55 76.17 39.14 106.58 56.92 106.58 92.07 121.19 104.61 122.74 47.72"/><path class="cls-4" d="M121.19,117Z" transform="translate(0 0)"/><path class="cls-5" d="M121.19,117l-14.61-8.29Z" transform="translate(0 0)"/><path class="cls-4" d="M106.58,108.66Z" transform="translate(0 0)"/><polygon class="cls-6" points="106.58 92.07 76.17 109.84 45.75 92.07 31.14 100.36 76.17 129.34 106.58 112.81 121.19 119.63 135.41 108.66 106.58 92.07"/><polygon class="cls-7" points="121.19 45.67 121.19 100.36 116.45 97.6 135.41 108.66 135.41 40.33 121.19 45.67"/><polygon class="cls-8" points="106.58 108.66 106.58 108.66 104.45 124.04 121.19 133.54 123.78 118.42 106.58 108.66"/><polygon class="cls-8" points="35.88 97.6 35.88 97.6 31.14 100.36 31.14 45.21 16.92 40.33 16.92 108.66 76.17 143.02 79.32 128.26 31.14 100.36 35.88 97.6"/><polygon class="cls-7" points="76.17 143.02 106.58 125.25 106.58 108.66 76.17 126.43 76.17 143.02"/><polygon class="cls-7" points="135.41 108.66 121.19 116.95 121.19 133.54 135.41 125.25 135.41 108.66"/><polygon class="cls-9" points="76.17 22.55 121.19 48.62 135.41 40.33 76.17 5.96 16.92 40.33 31.14 48.62 76.17 22.55"/></svg>